<?xml version="1.0" encoding="utf-8"?>
<!-- Generator: Adobe Illustrator 19.0.0, SVG Export Plug-In . SVG Version: 6.00 Build 0)  -->
<svg version="1.1" id="Réteg_1" xmlns="http://www.w3.org/2000/svg" xmlns:xlink="http://www.w3.org/1999/xlink" x="0px" y="0px"
	 viewBox="0 0 3369 696" style="enable-background:new 0 0 3369 696;" xml:space="preserve">
<style type="text/css">
	.st0{fill:#373737;}
	.st1{fill:#363636;}
	.st2{fill:#0290C6;}
	.st3{fill:#0190C6;}
	.st4{fill:#0190C5;}
	.st5{fill:#383838;}
	.st6{fill:#0391C6;}
	.st7{fill:#3A3A3A;}
</style>
<g>
	<path class="st0" d="M425.7,44c112.6,0.6,202.9,91.4,202.3,203.6c-0.6,112.2-91.7,202-204.5,201.4c-111-0.5-201.1-92.1-200.5-203.8
		C223.6,134,314.8,43.5,425.7,44z M425.9,113.1c-74.2-0.1-133.7,59.5-133.7,134c-0.1,72.8,59.8,132.6,133,132.8
		c73.4,0.2,133.5-59.4,133.7-132.5C559.1,173.3,499.5,113.2,425.9,113.1z"/>
	<path class="st1" d="M78.9,653c-23.4,0-42-12.4-49.9-31.3c-8-19.2-4-40.9,11-55.8c34.6-34.4,69.5-68.6,104.2-102.9
		c14.4-14.2,28.5-28.6,43.1-42.5c28.8-27.4,75.6-14,85.1,24.4c4.5,18.2,0.1,34.7-13.1,47.8c-49.1,48.9-98.6,97.5-148,146.1
		C101.6,648.4,89.6,652.8,78.9,653z"/>
	<path class="st2" d="M1281.2,346.1c-19-0.2-38.3-2.9-55.1-14.2c-16.8-11.3-27.7-26.7-30.7-47.1c-2.3-15.3,9.3-26.9,23.7-23.9
		c5.5,1.1,9.3,4.6,11.8,9.3c2.6,4.8,4.8,9.8,7,14.9c9.8,22.9,25.8,29.4,49.4,27.6c10.9-0.8,20.8-4.2,28.9-12.1
		c13.3-13,11.7-33-3.7-43.5c-10.3-7-22.5-8.7-34.1-12.2c-14.6-4.4-29.5-8.3-43.5-14.2c-18.8-7.9-31.9-21.8-34.7-43
		c-4.1-30.7,9.8-54.7,38.8-65.4c27.3-10.1,55.2-10.9,82.5-0.1c18.7,7.4,32.6,20.1,37.1,40.6c3,13.5-4.4,25.7-16.3,27.5
		c-7,1-13-0.8-16.9-7c-2.6-4-5.1-8.2-7.3-12.5c-12.4-23.6-42.8-31.7-65.4-17.3c-16.6,10.6-16.8,30.4,0.8,39c12.5,6.1,26.6,9,40,13.4
		c12.8,4.2,25.8,7.7,38.2,12.9c22.5,9.4,35.8,26.1,37,51.1c1.2,25.1-7.3,45.8-28.4,60.3C1322.7,342.4,1302.7,345.9,1281.2,346.1z"/>
	<path class="st3" d="M2227.8,346c-10.1,0.2-16.3-4-19.6-11.7c-5.6-13.1-11-26.4-15.9-39.8c-1.6-4.4-3.6-5.6-8.1-5.6
		c-25.5,0.2-51,0.3-76.5,0c-5.2-0.1-7,1.8-8.6,6.3c-5,13.6-10.3,27-15.7,40.4c-3.2,8-9.7,10.9-18.1,10.5
		c-12.2-0.6-22.6-12.6-19.5-24.5c3.2-12.2,7.9-24,12.4-35.8c18.2-47.7,36.6-95.3,54.9-142.9c1.3-3.4,2.8-6.8,4.4-10
		c5.6-11.2,14.3-17.6,27.2-17.9c13.4-0.3,23.4,5.4,29,17.4c6.1,13.3,11.2,27,16.6,40.6c17.4,43.9,34.8,87.8,52.1,131.7
		c2.1,5.2,3.8,10.7,4.9,16.2C2249.7,333.9,2239.6,345.9,2227.8,346z M2113.1,254.7c21.8,0,43.2,0,64.9,0
		c-10.9-30.4-21.6-60.3-32.8-91.6C2134.2,194.6,2123.7,224.6,2113.1,254.7z"/>
	<path class="st0" d="M689,204.3c2.9-3.1,5.2-5.7,7.6-8.2c29-30.9,76-21.7,96.5,8c9.3,13.5,14,28.5,15.5,44.7
		c1.8,19.9-0.3,39.2-8.6,57.6c-14.3,31.6-47.7,47-79.3,36.7c-10.6-3.4-18.8-9.7-31.7-24.4c-0.1,2.4-0.2,4.1-0.2,5.7
		c-0.2,21.3-0.1,42.6-0.7,63.9c-0.3,10.6-5.8,17.1-13.9,19.1c-12.1,3-20.9-2.6-22.9-14.8c-0.7-4.2-1-8.6-1-12.9
		c-0.1-59.3-0.1-118.6,0-177.9c0-3.1,0.2-6.3,0.8-9.4c1.9-10.6,8.3-15.9,18.6-15.7c9.7,0.1,16.8,6.4,18.5,16.3
		C688.5,196.5,688.6,200,689,204.3z M768.7,260.9c-0.9-6.7-1.3-13.6-2.9-20.2c-3.8-15-11.4-27.2-27.3-31.5
		c-17.2-4.7-34.8,4.8-42.5,22.4c-6.2,14-6.2,28.8-4.4,43.6c1,8.4,3.9,16.1,8.9,23c16.7,22.9,47.4,20.6,60.6-4.4
		C766.4,283.5,768.2,272.4,768.7,260.9z"/>
	<path class="st2" d="M1612.2,236.8c-0.6-4.1-0.9-7.9-1.7-11.7c-2.9-13.3-7.5-17.8-21-19.6c-19.6-2.5-36.6,1.4-46.7,20.7
		c-0.7,1.3-1.6,2.5-2.4,3.8c-4.7,7-10.9,9.1-18.9,6.4c-7.5-2.5-11.7-8.9-11-17c1.1-12.7,7.6-22.2,17.7-29.3
		c12.6-9,27-12.6,42.2-13.7c14.7-1,29.3-0.5,43.7,2.9c22.5,5.3,34.8,19.6,36.7,43.9c1.1,14.9,1.3,29.9,1,44.9
		c-0.4,18.8,0.4,37.2,6.5,55.2c2.3,6.8,0.5,12.8-4.9,17.6c-8.1,7.2-17.9,7.2-25.3-0.7c-5-5.3-9.1-11.4-13.6-17.3
		c-5.7,3.8-11.6,8.1-17.8,11.9c-17.2,10.5-35.9,14-55.6,9.8c-22.6-4.8-37.6-23-37.9-44.7c-0.3-22.4,13.7-39.8,37.2-45.6
		c22.6-5.6,45.3-10.7,67.9-16.1C1609.3,237.8,1610.4,237.3,1612.2,236.8z M1611.9,262.6c-9.7,2.4-19.2,4.8-28.7,7.2
		c-8.2,2.1-16.6,3.5-24.6,6.3c-10.6,3.8-15.4,11.6-14.5,21.3c0.8,9.6,8.1,17.9,18.4,19.6c5.5,0.9,11.4,0.9,16.8-0.2
		c13.5-2.8,24.6-9.5,29.5-23.2C1612.3,283.6,1612.3,273.1,1611.9,262.6z"/>
	<path class="st2" d="M2562.9,236.5c-1.8-6.8-3.1-13.6-5.3-20.1c-2.2-6.2-7.7-9.6-13.8-10c-8.9-0.6-17.9-0.6-26.8,0.3
		c-8.1,0.8-14.3,6-19.1,12.5c-2.6,3.5-4.8,7.2-7.2,10.8c-4.8,7.2-11.2,9.3-19.3,6.4c-7.4-2.7-11.4-9.1-10.7-17.2
		c1.2-12.7,7.8-22.1,18-29.2c12.5-8.8,26.8-13,41.7-13.3c13.7-0.3,27.7,0,41.2,2.4c25.2,4.6,37.5,18.8,39.4,44.4
		c1.1,14.4,1.3,28.9,1,43.4c-0.4,19.1,0.4,37.8,6.4,56.2c2.9,8.9-0.2,15.2-7.9,20c-6.9,4.3-14.4,4.2-20.3-1.3
		c-4.4-4.2-8-9.3-11.8-14.1c-1.3-1.7-2.3-3.6-3.3-5.1c-7.4,4.8-14.3,9.8-21.7,13.9c-16.3,9.2-33.9,11.9-52.1,8
		c-22.6-4.8-37.7-22.9-38.1-44.6c-0.4-22.4,13.6-39.9,37-45.8c22.6-5.6,45.3-10.7,67.9-16.1C2559.3,237.8,2560.5,237.3,2562.9,236.5
		z M2562.8,262.5c-18.1,4.4-35.2,8.4-52.2,12.7c-3,0.8-5.8,2.6-8.3,4.4c-7.2,5-9.7,12.5-7.6,21c1.8,7.1,6.3,12,12.8,15
		c14.9,6.8,47.1-1,52.2-25.7C2561.6,281,2561.8,271.8,2562.8,262.5z"/>
	<path class="st0" d="M876.2,272c-0.7,21.2,11.1,39.3,28.7,44.3c12.5,3.5,24.7,1.9,35.4-5.4c7.5-5.1,14.6-11.1,21.1-17.5
		c5.8-5.7,15.4-5.2,19.8-2.3c5.3,3.5,6.9,10.2,4.1,18c-4.4,11.9-13.1,20-23.8,26c-22.3,12.5-46,13.5-70.2,7.9
		c-24.2-5.7-40.9-20.7-50.2-43.7c-5.7-14-7.8-28.7-6.3-43.6c1.1-11.3,2.9-23,6.9-33.5c11.4-29.8,34.9-43.8,65.9-46
		c24.4-1.7,46.5,4.3,63.3,23.2c14,15.8,20.4,34.5,17.4,55.8c-1,7.1-5,12.1-12,13.8c-6.1,1.5-12.4,2.8-18.6,2.9
		c-25.3,0.3-50.6,0.2-76,0.2C879.9,272,878.3,272,876.2,272z M950.2,247.8c-1.5-6.6-2.4-12.9-4.3-18.9
		c-4.7-14.4-16.1-23.1-30.6-23.8c-15.4-0.8-27.7,6.5-33.7,20.8c-2.8,6.8-4.2,14.2-6.4,21.9C900.4,247.8,924.7,247.8,950.2,247.8z"/>
	<path class="st2" d="M3081.2,272c-0.6,21.2,11,39.1,28.4,44.2c12.7,3.7,25,2,35.8-5.4c7.5-5.1,14.2-11.5,21.1-17.4
		c5.8-5,13.9-6,19.7-2.1c5.2,3.5,6.7,10.3,3.9,18c-3.9,10.6-11.3,18.6-20.9,24c-31.1,17.6-63,17.7-94.2,0.8
		c-16.7-9-26.6-24.4-31.7-42.6c-5.7-20.3-5.7-40.8,0.1-61.1c9.5-32.9,34.8-52.6,69.1-54.3c24.2-1.2,46.2,4.4,62.9,23
		c14.2,15.9,20.7,34.7,17.6,56.2c-1,7.1-5.1,12.1-12.1,13.7c-6.1,1.4-12.4,2.8-18.6,2.9c-25.1,0.3-50.3,0.2-75.4,0.2
		C3085.1,272,3083.3,272,3081.2,272z M3155.4,247.7c-1.8-7.4-2.9-14.3-5.3-20.7c-5.2-13.8-15.6-21.2-30.4-21.9
		c-15-0.7-26.2,5.9-32.4,19.4c-3.3,7.1-4.8,15-7.3,23.2C3105.4,247.7,3129.7,247.7,3155.4,247.7z"/>
	<path class="st2" d="M2788,300.4c3.3-9.5,6.1-17.8,9-26c9.3-26.7,18.5-53.4,27.9-80.1c1-2.8,2.3-5.5,3.7-8.2
		c4.4-8.3,12.9-11.4,21.6-8c8.4,3.3,13.5,11.8,10.8,20.4c-5.6,17.6-11.6,35-18,52.3c-13.8,37.5-27.8,74.8-41.9,112.1
		c-2.2,5.7-4.8,11.3-7.4,16.9c-7.9,16.2-20.5,26.3-38.8,27.3c-10.9,0.6-22,0-32.7-1.5c-9.9-1.4-14.1-7.2-14.1-15.9
		c0-10.5,8.4-16.5,20.3-14.5c3.8,0.6,7.5,1.4,11.3,1.5c7.2,0.1,13.1-2.9,16.4-9.5c3.8-7.6,7.2-15.3,10.4-23.2
		c0.6-1.5-0.1-3.9-0.8-5.6c-16.4-42.5-32.9-85-49.3-127.5c-1.1-2.9-2.3-5.9-3-9c-3.3-13.5,6.8-25.8,20.6-25.1
		c5.5,0.3,10.2,2.4,12.9,7.3c2.7,4.9,5.2,10.1,7,15.4c10.8,31.6,21.4,63.3,32.1,95C2786.4,296.2,2787,297.7,2788,300.4z"/>
	<path class="st0" d="M1060.5,203.6c3.3-3.5,6.3-7.1,9.7-10.2c17.5-16.7,45.4-21.5,67.4-11.2c17.6,8.2,27.4,22.8,28.2,41.7
		c1.3,33.1,0.9,66.3,1,99.4c0,7.1-2,13.9-7.9,18.7c-11.3,9.2-28.2,2.8-31.5-11.9c-0.8-3.4-1-6.9-1-10.4c-0.1-23.7,0.1-47.3-0.2-71
		c-0.1-6.3-0.8-12.7-2.1-18.8c-3.4-16.3-14.5-23.4-30.9-20.3c-15.4,2.9-27.4,15.5-28.9,31.6c-1,10.3-1.3,20.6-1.5,30.9
		c-0.3,18.3,0.2,36.7-0.7,55c-0.7,14.3-13.8,22.7-26.6,18c-8.7-3.2-12.1-10.3-13.2-19c-0.3-2-0.2-4-0.2-6c0-39.5,0-79,0-118.5
		c0-3.3,0.2-6.7,0.9-9.9c2.1-9.5,8.3-14.5,17.5-14.6c9.2-0.1,16.3,5.3,18.5,14.4C1059.8,195.3,1059.9,199.3,1060.5,203.6z"/>
	<path class="st2" d="M2316.2,202.8c2.5-2.7,5.4-6,8.6-9.1c17.6-17,45.6-21.9,67.7-11.5c18.2,8.5,27.5,23.7,28.3,43.2
		c1.1,26.3,0.8,52.6,1,78.9c0,7.8,0.1,15.7-0.8,23.4c-1.3,11.3-8.7,18.1-18.9,18.3c-10.6,0.2-18.2-6.3-20.2-17.5
		c-0.5-3.1-0.8-6.3-0.8-9.4c-0.1-23.8,0.1-47.6-0.2-71.5c-0.1-6.1-0.8-12.3-2.1-18.3c-3.4-15.6-14.5-22.7-30.3-19.9
		c-15.6,2.7-27.9,15.5-29.4,31.7c-1,10.6-1.3,21.3-1.5,31.9c-0.3,18,0.2,36-0.7,53.9c-0.7,14.3-13.8,22.7-26.6,18
		c-8.7-3.2-12.1-10.3-13.2-19c-0.2-1.6-0.2-3.3-0.2-5c0-40.3,0-80.6,0.1-120.9c0-3.5,0.4-7,1.3-10.3c2-7.3,7.1-11.6,14.6-12.5
		c7.7-0.9,14.7,1.2,18.3,8.4C2313.7,190.9,2314.6,197.1,2316.2,202.8z"/>
	<path class="st2" d="M1938.7,346c-15.9-0.1-38.1-7.2-54.1-28c-10.1-13.1-14.7-28.2-16.1-44.4c-1.6-18.5,0.3-36.6,8.1-53.7
		c10.5-23.2,28.5-37.3,53.5-42c25.9-4.9,50.1-1.3,71.3,15.5c9.1,7.2,15.9,16.1,18.1,27.9c1.5,8.4-2.6,16.2-10.2,19.7
		c-7.8,3.6-14.7,2-20.4-5c-3.5-4.2-6.4-9-9.8-13.2c-18.8-23-51.5-19.3-63.7,7.9c-9,20.2-9.2,41.3-0.1,61.6
		c12.2,27.4,47.3,30.9,65.4,7.1c3.2-4.2,5.7-9,8.6-13.4c6-8.8,13.7-11.8,21.6-8.4c7.9,3.3,12.3,12.6,10.5,22.1
		c-2.6,13.6-10.8,23.4-21.5,31.4C1986.4,341,1968.5,346,1938.7,346z"/>
	<path class="st4" d="M2965.2,211c-21.4,0-41.7,0.1-62.1,0c-4,0-8-0.4-11.9-1c-7.2-1-10.1-3.3-11.2-8.7c-1.6-7.4,0.5-14.1,6.1-17.1
		c3.2-1.7,7.2-3,10.9-3c32.7-0.2,65.3-0.2,98-0.1c3.3,0,6.7,0.5,9.9,1.3c11.5,2.7,16.5,11.5,12.3,22.7c-1.6,4.2-4.3,8.3-7.3,11.7
		c-25.7,29.5-51.6,58.9-77.4,88.4c-1.2,1.3-2.3,2.7-4,4.9c2.5,0,4.1,0,5.7,0c24.3,0,48.6-0.1,73,0.1c3.6,0,7.3,0.6,10.7,1.8
		c6.6,2.4,9.8,8.2,9.4,15.9c-0.4,6.4-4.4,11.5-11,13.2c-2.9,0.7-5.9,1.1-8.9,1.1c-36.5,0.1-73,0.1-109.5,0c-3,0-6-0.3-8.9-0.9
		c-13.5-3-19-17.3-10.7-28.4c5.5-7.3,11.7-14.1,17.7-21c21.6-24.9,43.3-49.8,64.9-74.7C2962.1,215.4,2963.3,213.6,2965.2,211z"/>
	<path class="st4" d="M1410.8,211.5c-18.3-2.4-23.5-6-23.6-15.5c0-9.3,5.1-12.7,23.6-15.6c0-10.5-0.1-21.1,0.1-31.8
		c0.1-4.5,0.2-9,1.2-13.4c2-9.6,9.9-15.5,19.5-15.3c8.9,0.2,17.2,6.8,18.6,15.9c1,6.5,1,13.3,1.2,19.9c0.2,8.1,0,16.3,0,25.3
		c5.8,0,11.4-0.2,17,0c9.1,0.3,15.1,5.7,15.7,13.6c0.5,7.1-2.5,12.1-9.3,14.1c-4.6,1.3-9.5,1.7-14.2,2.2c-2.8,0.3-5.6,0.1-8.6,0.1
		c-0.2,0.9-0.6,1.5-0.6,2.1c0.1,28.5,0.1,57,0.6,85.4c0.2,13,6,17.1,18.8,14.8c3.1-0.6,6.2-1.1,9.4-1.5c7.7-1.1,13,1.4,15.7,7.5
		c2.8,6.1,1.4,13.9-4.5,17.9c-4.4,3-9.6,5.3-14.8,6.6c-11.7,3-23.8,3-35.7,1c-16.9-2.9-26.7-13.6-28.7-31.7
		c-0.8-7.6-1.2-15.3-1.3-22.9C1410.7,264.1,1410.8,238,1410.8,211.5z"/>
	<path class="st4" d="M1692.8,211.3c-17.2-1.3-23.4-5.4-23.6-15.1c-0.2-9.7,5.9-13.8,23.6-15.6c0-2,0-4.1,0-6.3
		c0.1-11.3-0.1-22.7,0.4-34c0.4-9.9,5.6-17,13.8-19.4c8.4-2.6,15.9-0.4,21,6.4c2.9,3.9,4.6,9.3,4.9,14.2c0.8,11.1,0.4,22.3,0.5,33.5
		c0,1.8,0,3.6,0,6c5.9,0,11.3-0.1,16.8,0c9.5,0.3,15.7,6,15.9,14.4c0.2,6.7-2.7,11.4-9.1,13.2c-4.7,1.3-9.8,1.7-14.7,2.2
		c-2.8,0.3-5.6,0.1-8.5,0.1c-0.2,1.1-0.4,1.8-0.4,2.4c0.2,28.5,0.1,57,0.6,85.4c0.2,12.6,6.1,16.8,18.6,14.6
		c3.3-0.6,6.6-1.2,9.8-1.6c7.3-1,12.6,1.5,15.4,7.3c2.7,5.7,1.8,13.4-3.5,17.3c-4.6,3.3-10,6-15.5,7.4c-11.7,3-23.8,3-35.7,1.1
		c-17-2.8-27-13.7-29-32c-0.8-7.1-1.2-14.3-1.2-21.4c-0.1-24.8-0.1-49.6-0.1-74.5C1692.8,215.2,1692.8,213.4,1692.8,211.3z"/>
	<path class="st2" d="M2643,230.2c0-29.6,0-59.3,0-88.9c0-3.3,0.3-6.7,0.9-9.9c2.1-10.6,9.1-16.4,19.4-16.4
		c10.1,0.1,17.6,6.3,19.5,16.6c0.6,3.4,0.9,6.9,0.9,10.4c0.1,58.9,0.1,117.9,0,176.8c0,4.3-0.5,8.7-1.6,12.8
		c-2.4,9.1-9.5,14.3-18.7,14.3c-9.1,0.1-16.2-5-18.8-14.1c-1.1-3.8-1.5-7.9-1.5-11.8C2642.9,290.1,2643,260.2,2643,230.2z"/>
	<path class="st4" d="M3267.5,201.7c2.1-3.1,4-6,6-8.8c10.8-14.7,23.5-19.5,41-14.2c6.8,2,13.8,5.4,19.2,9.9
		c8.8,7.3,7.5,20.9-2.1,27c-3.2,2-7.8,2.7-11.6,2.3c-6-0.7-11.8-3.2-17.9-4.4c-12.1-2.3-21.2,2.6-26.3,13.9c-5,11.1-6.4,23.1-6.7,35
		c-0.6,18.5-0.6,37-0.8,55.4c0,3,0,6-0.3,9c-1.2,11.5-9.1,19.1-19.8,19.2c-10.8,0.1-18.7-7.3-20-18.9c-0.3-2.3-0.3-4.7-0.3-7
		c0-38.5-0.1-76.9,0.1-115.4c0-5.2,0.7-10.7,2.3-15.7c2.6-8.5,9.1-12.3,18.5-12c8.5,0.3,13.7,4.2,16.3,12.8
		C3266.1,193.5,3266.6,197.5,3267.5,201.7z"/>
	<path class="st2" d="M1794,261c0-19.7,0-39.3,0-59c0-3.1,0.3-6.3,1-9.4c2.2-10.1,9.5-15.8,19.6-15.6c9.6,0.2,17.4,6.7,19.3,16.4
		c0.6,2.9,0.8,6,0.8,8.9c0.1,39,0.1,78,0,117c0,4.1-0.5,8.4-1.6,12.3c-2.6,9.4-10.1,14.6-19.7,14.4c-8.8-0.2-15.9-6-18.1-15.1
		c-0.8-3.4-1.2-6.9-1.2-10.4C1793.9,300.7,1794,280.8,1794,261z"/>
	<path class="st5" d="M304.1,427c-0.3,6.7-2.6,10.6-7.2,12.8c-5.1,2.4-9.8,1.3-13.8-2.4c-8.6-8.1-17.1-16.3-25.6-24.5
		c-4.7-4.5-9.5-8.9-14.1-13.4c-5.5-5.5-5.8-12.7-0.9-17.7c4.8-4.9,12-5.2,17.4-0.1c13.5,12.6,26.8,25.4,40,38.3
		C302.1,422.1,303.2,425.4,304.1,427z"/>
	<path class="st6" d="M1794,137.4c0.1-11.6,9.1-20.4,20.7-20.4c11.9,0.1,20.2,8.7,20,20.8c-0.2,12.1-8.7,20.4-20.6,20.2
		C1802.1,157.9,1793.9,149.5,1794,137.4z"/>
	<path class="st7" d="M360.8,172.2c-17.5,42.8-9.8,81.9,18.6,116.7c28.4,34.9,65,50.5,111.6,39.6c-17.8,14.2-54.6,23-86.9,12.7
		c-38.8-12.3-64.3-37.9-72.7-78C324,227.9,335.2,197.6,360.8,172.2z"/>
</g>
</svg>
