<?xml version="1.0" encoding="utf-8"?>
<!-- Generator: Adobe Illustrator 19.0.0, SVG Export Plug-In . SVG Version: 6.00 Build 0)  -->
<svg version="1.1" id="Réteg_1" xmlns="http://www.w3.org/2000/svg" xmlns:xlink="http://www.w3.org/1999/xlink" x="0px" y="0px"
	 viewBox="0 0 2093 988" style="enable-background:new 0 0 2093 988;" xml:space="preserve">
<style type="text/css">
	.st0{fill:#363636;}
	.st1{fill:#0190C5;}
	.st2{fill:#0090C5;}
	.st3{fill:#373737;}
	.st4{fill:#383838;}
</style>
<g>
	<path class="st0" d="M980,337.5c0,174.3-141.4,315.6-315.6,315.5C490.1,652.9,348.8,511.5,349,337.3C349.2,163,490.7,21.7,664.9,22
		C839,22.3,980,163.4,980,337.5z M460,337.5c0,112.8,91.2,204.4,203.4,204.5c113.9,0.1,205.5-90.7,205.6-203.7
		C869.1,224.8,778.1,133,665.4,133C551.3,133,460,223.9,460,337.5z"/>
	<path class="st1" d="M1243.4,645.1c-38.8-0.3-78.7-4.9-116.3-21.2c-56.6-24.4-94-66.3-111.3-125.6c-4.3-14.8-6.2-30.2-1.8-45.4
		c6-20.4,19.6-33.5,40.7-37.4c20.7-3.8,38.1,2.4,50.1,20.2c5.5,8.2,9.7,17.4,14.1,26.3c7.1,14.3,13,29.2,21,43
		c15.6,27,39.6,42.7,70.1,48.1c30.2,5.4,60.1,4.1,89.2-6.2c18.7-6.6,34.6-17.6,47.3-33.1c22.1-27,24.4-78.6-14.3-105.9
		c-15.5-10.9-32.6-18-50.6-22.9c-30.2-8.2-60.5-15.7-90.6-24c-30.3-8.4-60.1-18.5-87.7-34c-29.8-16.7-53.5-39.5-67.7-71.1
		c-10.1-22.5-13.2-46.4-12.3-70.7c1.8-46.1,20-84.4,55.8-113.8c23.7-19.5,51.2-31.5,80.9-38.6c54.1-12.9,108.6-14.2,162.7-0.7
		c42.6,10.7,79.3,31.8,106.3,67.4c16.8,22.1,26.4,46.9,25.1,75.1c-1.1,23.9-20.5,47-43.6,50.7c-18.7,3.1-35.7-0.6-47.1-17.7
		c-6.1-9.1-11.5-18.7-17.2-28.1c-6.5-10.7-12.3-21.7-19.5-31.9c-14.1-20.1-33.3-32.6-58-36.1c-27.9-4-55.5-4-82.4,5.5
		c-16.7,5.9-31,15.4-41.7,29.7c-16.5,22.1-14.6,51.6,4.7,71.2c15.7,16.1,35.7,24.9,56.8,30.9c36.8,10.5,73.9,19.8,110.7,30.3
		c29.1,8.3,57.6,18.6,84.1,33.7c31.4,18,55.4,42.4,68.5,76.5c9,23.4,11.4,47.9,10.5,72.7c-1.4,38.7-13.3,73.8-37.5,104.4
		c-22.7,28.8-52.5,47.7-86.5,60.6C1320.3,640.5,1283.1,645,1243.4,645.1z"/>
	<path class="st2" d="M1994.2,645.3c-21-0.3-37.1-9.3-46.2-28c-9.8-20.1-18.4-40.9-26.8-61.7c-8-19.9-15.2-40.1-22.4-60.3
		c-1.2-3.5-3-4.4-6.5-4.4c-76.7,0.1-153.3,0.1-230,0c-3.5,0-5.1,1-6.4,4.4c-12.2,33.2-24.4,66.5-37,99.6c-3.4,8.8-8,17.2-12.1,25.7
		c-7.2,14.7-19.3,22.1-35.4,24.1c-30.6,3.8-60.3-18-64.9-48.4c-1.7-11.4,0.2-22.7,4.2-33.4c13.2-35.5,26.6-71,40.2-106.4
		c46.6-121,93.2-242,140-363c3.9-10,8.7-19.8,13.9-29.2c18.8-33.4,48.1-44,82.7-40.9c27.5,2.5,47.4,16.7,61.6,39.9
		c11.5,18.7,18.2,39.5,26.2,59.7c36.9,93.4,73.9,186.8,110.8,280.2c18.4,46.5,37.1,93,55,139.7c4.9,12.8,8.2,26.4,10.6,39.9
		c5.2,28.4-20.6,56.7-45.9,61.1C2002.1,644.6,1998.1,644.9,1994.2,645.3z M1864.9,399.9c-29.5-82.3-58.9-164.3-88.7-247.7
		c-29.3,83.4-58.2,165.4-87.1,247.7C1748,399.9,1806.1,399.9,1864.9,399.9z"/>
	<path class="st0" d="M429.2,661.4c-0.5,26.7-8.9,45.9-25.2,61.8c-47.7,46.8-95.3,93.7-142.9,140.6c-28.3,27.8-56.3,55.8-84.8,83.4
		C133.3,988.9,62,970.9,44.7,914c-9.3-30.5-2-57.8,20.6-80.3c42.9-42.7,86.1-85,129.2-127.4c33-32.5,65.9-65.1,99.1-97.4
		c43-41.8,114.5-23.7,131.8,33.4C427.7,649.6,428.4,657.5,429.2,661.4z"/>
	<path class="st3" d="M395.4,541.7c2.4,1.2,7.3,2.6,10.6,5.6c21.3,19.9,42.4,40.1,63.3,60.4c7.6,7.3,7.5,18.6,0.6,26.1
		c-7.1,7.7-18.7,8.6-26.5,1.3c-21.6-20.3-43.1-40.8-64.3-61.5c-5.8-5.6-6.7-12.9-3.5-20.3C379,546,385.1,542.5,395.4,541.7z"/>
	<path class="st4" d="M569.7,213.4c-0.2,1.2-0.1,2.6-0.7,3.6c-19.4,32.4-23.9,67.5-15.8,103.6c15.6,69.4,57.1,117.5,124.4,141.8
		c27.9,10.1,56.7,10.7,85.4,2.2c1.8-0.5,3.7-0.5,5.5-0.7c0.2,0.4,0.3,0.9,0.5,1.3c-6.2,3.4-12.2,7.1-18.5,10.1
		c-64.8,31.1-142.2,17.3-192.2-34.2c-56.9-58.5-58.7-151.1-4.1-211.6C559.1,224,564.5,218.8,569.7,213.4
		C569.7,213.5,569.7,213.4,569.7,213.4z"/>
	<path class="st4" d="M569.7,213.5c0.3,0.1,0.6,0.1,0.9,0.2c-0.1,0.1-0.2,0.3-0.3,0.4C570.1,213.8,569.9,213.6,569.7,213.5
		C569.7,213.4,569.7,213.5,569.7,213.5z"/>
</g>
</svg>
